<svg data-animate xmlns="http://www.w3.org/2000/svg" viewBox="0 0 128.81 88.65" class="injected-svg svg-inject signet mobile"><defs></defs><polygon class="header_hint_schraeg" points="90.26 88.65 0 88.65 0 0 128.81 0 90.26 88.65"></polygon><path class="signet_aussen" d="M54.42,64.09A23.15,23.15,0,0,0,66.07,21.2L63.7,26.66A17.27,17.27,0,0,1,50.16,57.79L44.41,71h7Z"></path><path class="signet_aussen" d="M44.28,55.23A17.27,17.27,0,0,1,57.81,24.1l2.37-5.46A23.15,23.15,0,0,0,41.9,60.69Z"></path><path class="signet_innen" d="M64.51,40.95A10.52,10.52,0,1,1,54,30.42,10.52,10.52,0,0,1,64.51,40.95"></path></svg>